<?xml version="1.0" encoding="UTF-8"?>
<svg id="Layer_1" data-name="Layer 1" xmlns="http://www.w3.org/2000/svg" viewBox="0 0 437.33 437.33">
  <defs>
    <style>
      .cls-1 {
        fill: none;
      }
    </style>
  </defs>
  <g>
    <path d="M155.36,349.17c2.87-.06,5.75-.14,8.62-.16,3.12-.03,6.23,0,9.64,0v8.97h63.1v-8.91h8.94v-8.9h9.1v-9.04h8.82v-8.94h9.01v-17.94h-8.81v-9.11h8.93v-18.02h8.96v-8.9h9v-35.79h-8.89v8.52h-18.09v-8.57h-8.83v8.54h-9.11c-.11-5.8,.02-11.66-.07-17.65h-8.82v8.91h-9.19v17.88h-8.68v-26.88h8.66v-8.94h53.94v-9.08h-8.79v-18h-9.15v-17.95h-35.96v-8.93h-8.82v-17.96h-18.06v-17.84h-26.98v8.62c-9.06,.11-17.88-.01-26.91,.07v9.01h-9.13v35.96h-8.86v8.74c2.75,.67,5.65-.1,8.62,.46v8.85h-8.73v26.74h-9.05v-89.72h17.88v-8.9h9.01v-8.89c-2.88-.62-5.85,.06-8.83-.42v-8.64h8.91v-9.14h8.83v-8.6c3.11-.66,6.07-.02,9.16-.47v-26.91h8.94v-17.84h17.86v8.87h9.19v8.82h35.95v9.18h45v8.92h9.17v9.13h17.89v17.94h8.85v89.96h-8.79v89.87h-9.09c-.15,9.02,0,17.84-.09,26.89h-8.68v17.85c-3.09,.47-6.03,0-9.16,.35v17.77h-8.93v9.11h-9.14v8.85h-8.74v9c-3.11,.49-6.06,0-9.18,.36v8.67h-26.92v8.99h-9.04v-8.85h-26.92v-8.91h-9.12v-9.1h-8.94v-8.92h-9.05c-.12-3.21-.23-6.13-.35-9.06l-.06,.07Z"/>
    <path d="M182.85,322.18v-9.04h-9.05c-.15-3.02-.12-5.83,0-8.8h17.78v8.52h36.07v-8.51h27.07c.22,2.77,.08,5.52,.09,8.58h-9.02v9.04c-3.02,.41-5.88-.02-9,.3v8.64h-17.93v-8.73h-36.01Z"/>
    <path d="M236.61,286.15h-8.87v8.75h-17.85v-8.69h8.92v-17.86h17.81v17.8Z"/>
    <path d="M146.86,340.44c-1.74-.09-3.48-.21-5.22-.27-1.18-.04-2.37,0-3.79,0-.26-3.07-.13-5.96-.11-8.98h9.04c0,3.16,0,6.25,0,9.33,0,0,.07-.07,.07-.07Z"/>
    <path d="M173.98,223.54c-.13-3.01-.25-6.01-.39-9.18h9.16c.14,2.77,.06,5.58,.03,8.75-2.05,0-3.95-.04-5.84,.02-1.01,.03-2.01,.24-3.01,.36l.04,.05Z"/>
    <path d="M173.94,223.49c-.08,2.1-.16,4.2-.24,6.3-.03,.94-.04,1.88-.06,2.82,0,0,.07-.07,.07-.07-1.82-.1-3.63-.23-5.45-.31-1.09-.04-2.19,0-3.37,0v-9.06c3.13,.11,6.12-.51,9.09,.37,0,0-.04-.04-.04-.04Z"/>
    <path d="M173.65,232.61c2.96-.86,5.93-.15,9.04-.39v8.7h-8.97c0-2.86,0-5.62,0-8.38,0,0-.07,.07-.07,.07Z"/>
    <path d="M155.42,349.1h-8.55c0-3.05,0-5.86,0-8.66,0,0-.07,.07-.07,.07,2.81-.16,5.63-.32,8.78-.51-.03,3.25,.32,6.2-.22,9.17,0,0,.06-.07,.06-.07Z"/>
  </g>
  <rect class="cls-1" width="437.33" height="437.33"/>
</svg>