<svg xmlns="http://www.w3.org/2000/svg" width="32" height="32" viewBox="0 0 32 32">
  <g id="pka0370-delete" transform="translate(-0.132 0.141)">
    <g id="_x36_4px_boxes" transform="translate(0 0)">
      <rect id="Rectangle_1154" data-name="Rectangle 1154" width="32" height="32" transform="translate(0.132 -0.141)" fill="none"/>
    </g>
    <g id="Production" transform="translate(4.605 4.605)">
      <g id="Group_1822" data-name="Group 1822">
        <path id="Path_1259" data-name="Path 1259" d="M25.712,21.061l5.955-5.953a1.362,1.362,0,0,0,.207-1.792,19.7,19.7,0,0,0-3.068-3.066,1.357,1.357,0,0,0-1.789.207l-5.954,5.7-5.957-5.7a1.36,1.36,0,0,0-1.79-.205,19.916,19.916,0,0,0-3.064,3.065,1.355,1.355,0,0,0,.206,1.791l5.955,5.956-5.957,5.956a1.36,1.36,0,0,0-.205,1.79,19.916,19.916,0,0,0,3.065,3.064,1.357,1.357,0,0,0,1.791-.206l5.955-5.955,5.953,5.955a1.361,1.361,0,0,0,1.792.206A19.7,19.7,0,0,0,31.874,28.8a1.36,1.36,0,0,0-.207-1.789Z" transform="translate(-10 -9.999)" fill="#303030"/>
      </g>
    </g>
  </g>
</svg>
