<?xml version="1.0" encoding="UTF-8"?>
<svg id="Layer_1" data-name="Layer 1" xmlns="http://www.w3.org/2000/svg" viewBox="0 0 390.72 367.9">
  <defs>
    <style>
      .cls-1 {
        fill: #f09308;
      }

      .cls-2 {
        fill: #e3e3e3;
      }

      .cls-3 {
        fill: #eb9c33;
      }

      .cls-4 {
        fill: #ececec;
      }

      .cls-5 {
        fill: #e68402;
      }

      .cls-6 {
        fill: #d5d7d7;
      }

      .cls-7 {
        fill: #217497;
      }

      .cls-8 {
        fill: #080808;
      }

      .cls-9 {
        fill: #1a1a1a;
      }

      .cls-10 {
        fill: #959d9c;
      }

      .cls-11 {
        fill: #29aae0;
      }

      .cls-12 {
        fill: #54bbe7;
      }

      .cls-13 {
        fill: #343738;
      }

      .cls-14 {
        fill: #4c92af;
      }

      .cls-15 {
        fill: #4d8cf2;
      }
    </style>
  </defs>
  <g id="_4ZydjN" data-name="4ZydjN">
    <g>
      <path class="cls-10" d="M176.57,14.47c-.03-4.82-.07-9.65-.1-14.47h1c1.51,1.67,1.94,4.55,5.02,4.46,1.6,.61-.15,2.33,1.03,3.08-2.72,.31-1.98,1.95-3.76,2.75-2.41,1.08,.29,5.01-3.18,4.19Z"/>
      <path class="cls-13" d="M182.48,4.46c-3.08,.09-3.51-2.79-5.02-4.46h7c-.02,1.77,.44,3.75-1.98,4.46Z"/>
      <path class="cls-9" d="M.48,285.74c.04-.58,.09-1.16,.13-1.75,1.49-2.11,.88-4.52,.88-6.79,.03-69.07,.02-138.14,.03-207.2,0-10.88,4.2-15.04,15.15-15.04,49.77,0,99.54,0,149.3,0,1.17,0,2.33,.04,3.49,.01,1.71-.03,2.42,.69,2.1,2.45-.81,4.42,1.68,7.2,4.87,9.62-1.91,1.52-4.16,.92-6.27,.92-50.31,.03-100.62,.02-150.93,.03q-6.72,0-6.73,6.44c0,63.96,0,127.92,0,191.88q0,6.56,6.59,6.58c117.61,0,235.22,0,352.83,0q6.47,0,6.48-6.69c0-63.79,0-127.59,0-191.38q0-6.82-6.85-6.83c-60.3,0-120.61,0-180.91-.05-2.1,0-4.37,.65-6.22-1.03,1.33-2.07,3.91-3.65,3.77-6.27-.23-4.63,1.71-6.29,6.13-5.81,.69,.08,1.47-.63,2.21-.97,.61,0,1.21,.02,1.82,.03,2.03,1.72,4.46,1.04,6.72,1.04,59.42,.06,118.84,.09,178.26,.11,0,0,.02,.01,.02,.01,.64,.33,1.27,.67,1.91,1,3.75,2.07,5.12,5.51,5.38,9.54,.11,1.66,.05,3.33,.05,4.99,0,69.45,0,138.91,0,208.36,0,1.99-.13,3.99-.2,5.98-.37,.28-.73,.55-1.1,.83-1,.04-1.99,.11-2.99,.11-127.15,0-254.29,0-381.44,0-1.5,0-2.99-.08-4.49-.13ZM195.64,56.96c-3.16,.04-4.98,1.45-5.18,4.69-.21,3.35,1.77,5.04,4.68,5.1,3.24,.07,5.14-2.13,5.21-5.33,.06-2.99-1.88-4.35-4.71-4.46Z"/>
      <path class="cls-2" d="M.48,285.74c1.5,.05,2.99,.13,4.49,.13,127.15,0,254.29,0,381.44,0,1,0,1.99-.07,2.99-.11,.35,.12,.69,.24,1.04,.36-.01,8.25-.02,16.49-.03,24.74-.68,.68-.85,1.46-.48,2.35-.07,.27-.17,.52-.3,.76-.83,.45-1.13,1.15-1,2.06l-.21-.15s.21,.14,.21,.14c-.87,.31-1.27,.96-1.32,1.85-.3,.3-.6,.6-.91,.91-.89,.05-1.54,.45-1.84,1.32l-.15-.21s.16,.21,.16,.2c-.9-.13-1.59,.17-2.01,1,0,0,0,0,0,0-1.19-.27-2.26-.08-3.16,.81-43.57,.04-87.14,.08-130.72,.13-24.65-.08-49.3-.21-73.95-.24-10.82-.01-21.64,.16-32.47,.26-43.57-.04-87.15-.08-130.72-.12-.3-.2-.62-.23-.95-.1-7.5-2.22-10.32-5.6-10.4-13.16-.08-7.64-.51-15.29,.29-22.93Zm32.47,9.47c0,.08,0,.15,0,.23-5.56,0-11.12,.09-16.68-.04-2.77-.07-3.41,.6-3.5,3.66-.08,2.97,2.12,5.69,.82,8.49-1.91,4.12,.34,5.24,3.67,5.26,10.21,.09,20.43,.08,30.64-.14,2.21-.05,5.16-.75,4.39-4.03-.82-3.49-.34-6.86-.1-10.27,.17-2.41-.71-3.25-3.12-3.2-5.37,.13-10.75,.04-16.13,.04Zm325.52,17.62s0-.05,0-.07c4.78,0,9.56,.13,14.33-.05,2.59-.1,5.99-.17,5.38-4.07-.55-3.48-.07-6.86-.05-10.27,.02-2.4-.75-3.22-3.16-3.19-10.96,.16-21.92,.24-32.87,.21-2.89,0-3.3,.82-3.38,3.78-.07,2.87,2.27,5.45,.9,8.15-2.38,4.69,.98,5.25,3.99,5.44,4.94,.31,9.91,.08,14.87,.08Zm-63.5-2.96c-6.32,0-12.65-.02-18.97,.02-1.46,0-3.28-.12-3.26,2.07,.02,1.84,1.59,1.89,2.93,1.89,12.81,.02,25.63,.02,38.44,0,1.32,0,2.92,0,3.01-1.82,.11-2.2-1.7-2.14-3.18-2.15-6.32-.04-12.65-.02-18.97-.02Z"/>
      <path class="cls-6" d="M142.43,359.82c.19-11.28,.39-22.56,.58-33.83,8.28,.58,16.55,1.22,24.84,1.71,19.4,1.14,38.83,1.9,58.2,3.45,7.26,.58,14.68-.21,21.8,1.94,.2,8.63,.62,17.26-.24,25.88-1.88,.81-3.85,.9-5.87,.9-33.1-.03-66.21-.03-99.31-.04Z"/>
      <path class="cls-2" d="M142.43,359.82c33.1,0,66.21,.01,99.31,.04,2.01,0,3.99-.08,5.87-.9,1.61,1.26,3.51,.83,5.3,.85,4.83,.06,9.66-.06,14.48,.07,3.45,.09,4.4,2.47,4.4,5.46,0,3.39-2.6,2.38-4.35,2.38-47.93,.04-95.86,.05-143.8-.01-1.86,0-4.78,1.2-4.8-2.48-.01-3.33,1.57-5.37,5.12-5.39,6.16-.03,12.32-.02,18.47-.03Z"/>
      <path class="cls-10" d="M247.84,333.09c-7.12-2.15-14.54-1.36-21.8-1.94-19.37-1.55-38.8-2.31-58.2-3.45-8.28-.49-16.56-1.13-24.84-1.71-.25-1.32-.5-2.63-.75-3.95,10.82-.09,21.64-.27,32.47-.26,24.65,.03,49.3,.15,73.95,.24-.28,3.69-.55,7.38-.83,11.07Z"/>
      <path class="cls-13" d="M196.54,53.86c-.74,.34-1.51,1.05-2.21,.97-4.42-.49-6.36,1.17-6.13,5.81,.13,2.62-2.45,4.2-3.77,6.27-2.55,.38-2.94,2.2-2.88,4.32-1.05-.07-2.1-.14-3.15-.22,.1-1.69,.4-3.49-1.96-3.97-3.18-2.42-5.68-5.2-4.87-9.62,.32-1.75-.38-2.48-2.1-2.45-1.16,.02-2.33-.01-3.49-.01-49.77,0-99.54,0-149.3,0-10.95,0-15.15,4.16-15.15,15.04,0,69.07,0,138.14-.03,207.2,0,2.28,.61,4.69-.88,6.79-.1-1.32-.29-2.64-.29-3.96-.01-70.67-.02-141.34,0-212.01,0-9.23,3.22-12.92,12.29-14.48,1.15,.11,2.31,.31,3.46,.31,50.73,.02,101.45,.02,152.18,0,1.47,0,2.94-.36,4.4-.55,1.12-.23,2.24-.45,3.36-.68,.86,.94,1.71,1.88,2.56,2.82-1.71,1.51-5.75,1.41-3.86,5.41,1.26,2.67,3.72,3.83,6.44,3.54,4.18-.44,5.31-4.55,2.74-9.19-.83-2.63-2.17-4.66-6.72-3.99,2.19-1.27,3.45-1.61,3.94-2.42,.43-.71-2.44,.15-1.46-1.85,.55-1.14-1.67-3.08,1.01-3.72-.5-.05-1-.07-1.49-.17-.48-.11-.98-.29-.52-1.21,.96-.42,2.1-.92,3.15-1.38-.9-.71-2.52,.47-3.34-1.08,1.94-.99,1.03-1.56,1.4-2.14,1.47-2.37-1.31-1.96-1.59-3.01-.26-1,4.51-1.73,.18-2.86,.55-1.62,2.42-.93,3.24-2.02-1.07-.38-2.37,.37-3.32-1.03,1.26-.49,2.44-.95,4.25-1.66-4.93-.29-3.45-4.21-4.14-6.35-.67-2.08,3.2-.74,4.04-2.58,2.43,.69,2.01,2.71,2.02,4.47,.02,8.1,0,16.19,0,24.29,0,6.46,.35,6.78,6.62,6.91,1.8,.04,3.59,.32,5.38,.49Z"/>
      <path class="cls-13" d="M383.34,55.04c-59.42-.03-118.84-.05-178.26-.11-2.26,0-4.7,.68-6.72-1.04,1.74-.81,3.6-.52,5.42-.52,56.64-.01,113.28-.02,169.92,0,3.29,0,6.69-.41,9.64,1.67Z"/>
      <path class="cls-10" d="M178.57,55.43c-.85-.94-1.71-1.88-2.56-2.82,1.17-9.87,.21-19.79,.51-29.68,.08-2.47,.13-4.95,.2-7.42,2.42,1.39,5.05,.95,7.64,.86-.8,.2-1.74,.19-1.85,1.34-.84,1.83-4.71,.49-4.04,2.57,.69,2.14-.79,6.06,4.14,6.35-1.8,.7-2.99,1.17-4.25,1.66,.94,1.4,2.25,.65,3.32,1.03-.82,1.1-2.69,.4-3.24,2.02,4.33,1.13-.44,1.86-.18,2.86,.28,1.06,3.06,.64,1.59,3.01-.36,.58,.55,1.15-1.4,2.14,.81,1.55,2.43,.37,3.34,1.08-1.05,.46-2.19,.96-3.15,1.38-.46,.93,.04,1.1,.52,1.21,.48,.11,.99,.12,1.49,.17-2.68,.63-.45,2.58-1.01,3.72-.98,2,1.9,1.14,1.46,1.85-.49,.81-1.76,1.14-3.94,2.42,4.55-.67,5.89,1.36,6.73,3.99-1.77,.08-3.54,.16-5.32,.24Z"/>
      <path class="cls-7" d="M172.65,53.28c-1.47,.19-2.94,.55-4.4,.55-50.73,.03-101.45,.03-152.18,0-1.15,0-2.31-.2-3.46-.31,1.47-.19,2.94-.54,4.41-.54,50.56-.03,101.11-.02,151.67,0,1.32,0,2.65,.19,3.97,.29Z"/>
      <path class="cls-13" d="M184.36,16.37c-2.59,.09-5.22,.53-7.64-.86-.05-.35-.1-.7-.15-1.04,3.47,.83,.77-3.1,3.18-4.18,1.78-.8,1.04-2.43,3.76-2.75,2.24,2.75,0,5.94,.85,8.83Z"/>
      <path class="cls-10" d="M379.39,321.89c.9-.88,1.97-1.07,3.16-.81-.87,.98-1.97,1.07-3.16,.81Z"/>
      <path class="cls-10" d="M389.92,313.21c-.37-.89-.2-1.67,.48-2.35,.24,.86,.11,1.65-.48,2.35Z"/>
      <path class="cls-10" d="M388.62,316.03c-.13-.91,.17-1.62,1-2.06,.05,.87-.2,1.6-1,2.06Z"/>
      <path class="cls-10" d="M387.31,317.87c.05-.89,.45-1.54,1.32-1.85-.04,.9-.44,1.54-1.32,1.85Z"/>
      <path class="cls-10" d="M384.56,320.09c.31-.87,.95-1.26,1.84-1.32-.3,.87-.95,1.27-1.84,1.32Z"/>
      <path class="cls-10" d="M382.55,321.09c.42-.83,1.11-1.13,2.01-1-.44,.79-1.15,1.05-2.01,1Z"/>
      <path class="cls-13" d="M385.27,56.06c-.64-.33-1.27-.67-1.91-1,.83-.04,1.46,.3,1.91,1Z"/>
      <path class="cls-13" d="M390.43,286.12c-.35-.12-.69-.24-1.04-.36,.37-.28,.73-.55,1.1-.83-.02,.4-.04,.8-.06,1.19Z"/>
      <path class="cls-10" d="M10.58,321.82c.33-.13,.65-.1,.95,.1-.36,.38-.67,.33-.95-.1Z"/>
      <path class="cls-8" d="M181.55,71.23c-.05-2.12,.33-3.94,2.88-4.32,1.84,1.69,4.12,1.03,6.22,1.03,60.3,.04,120.61,.04,180.91,.05q6.84,0,6.85,6.83c0,63.79,0,127.59,0,191.38q0,6.67-6.48,6.69c-117.61,0-235.22,0-352.83,0q-6.58,0-6.59-6.58c0-63.96,0-127.92,0-191.88q0-6.43,6.73-6.44c50.31,0,100.62,0,150.93-.03,2.11,0,4.36,.6,6.27-.92,2.36,.48,2.06,2.28,1.96,3.97-.17,.21-.14,.39,.07,.56-52.64-.01-105.28,0-157.92-.11-3.56,0-4.9,.73-4.89,4.64,.12,62.96,.12,125.93,0,188.89,0,3.73,.98,4.78,4.74,4.76,29.49-.15,58.97-.08,88.46-.1,1.16,0,2.31-.19,3.47-.3,8.63,.11,17.25,.31,25.88,.3,26.74-.03,53.47-.13,80.21-.21,18.31,.33,36.62,.43,54.93-.05,1.66,.09,3.31,.26,4.97,.26,30.3,.02,60.59-.1,90.89,.12,4.74,.03,6.11-1.07,6.1-5.98-.18-58.09-.12-116.18-.12-174.26,0-4.83-.1-9.66,.04-14.48,.07-2.53-.78-3.68-3.41-3.59-5.14,.19-10.29,.25-15.44,.36-18.61-.5-37.23-.53-55.84,.02-.48-.11-.97-.32-1.45-.32-30.8,.03-61.59,.07-92.39,.11-.82,.05-1.63,.09-2.45,.14-4.19-.4-8.38-.57-12.58,.02-1.07-.38-2.14-.45-3.2,.04l-1.65-.13c-.56-.5-1.13-.5-1.69,0-.89,.09-1.77,.18-2.66,.27-.3-.25-.6-.49-.9-.74Z"/>
      <path class="cls-8" d="M195.64,56.96c2.83,.11,4.78,1.47,4.71,4.46-.07,3.2-1.97,5.4-5.21,5.33-2.91-.06-4.89-1.75-4.68-5.1,.2-3.24,2.02-4.65,5.18-4.69Z"/>
      <path class="cls-6" d="M32.95,295.21c5.38,0,10.75,.09,16.13-.04,2.41-.06,3.29,.79,3.12,3.2-.24,3.41-.73,6.79,.1,10.27,.78,3.28-2.18,3.98-4.39,4.03-10.21,.22-20.42,.23-30.64,.14-3.32-.03-5.58-1.14-3.67-5.26,1.3-2.81-.9-5.52-.82-8.49,.08-3.07,.73-3.73,3.5-3.66,5.56,.13,11.12,.04,16.68,.04,0-.08,0-.15,0-.23Z"/>
      <path class="cls-6" d="M358.47,312.83c-4.96,0-9.93,.22-14.87-.08-3.01-.19-6.37-.75-3.99-5.44,1.37-2.71-.97-5.28-.9-8.15,.07-2.95,.49-3.79,3.38-3.78,10.96,.04,21.92-.04,32.87-.21,2.42-.04,3.18,.79,3.16,3.19-.02,3.41-.5,6.79,.05,10.27,.61,3.9-2.78,3.97-5.38,4.07-4.77,.18-9.55,.05-14.33,.05,0,.02,0,.05,0,.07Z"/>
      <path class="cls-6" d="M294.97,309.87c6.32,0,12.65-.02,18.97,.02,1.48,0,3.29-.05,3.18,2.15-.09,1.82-1.69,1.82-3.01,1.82-12.81,.02-25.63,.02-38.44,0-1.34,0-2.91-.05-2.93-1.89-.03-2.2,1.79-2.06,3.26-2.07,6.32-.04,12.65-.02,18.97-.02Zm-20.55,2.08c2.71,1.03,5.4,1.33,9.24-.1-3.9-1.23-6.57-1.19-9.24,.1Zm23.03-.09c2.37,1.18,4.74,1.56,7.65-.18-2.98-1.07-5.3-.98-7.65,.18Zm-2.73,.05c-3.7-1.33-6.02-1.11-8.29-.09,2.37,1.28,4.7,1.36,8.29,.09Z"/>
      <path class="cls-7" d="M181.55,71.23c.3,.25,.6,.49,.9,.74,.05,6.26,.11,12.51,.16,18.77-.21,.5-.43,1-.64,1.5-1.09,2.55-.97,5.1-.07,7.67,.02,.59,.03,1.18,.05,1.77-1.38,1.1-1.49,2.82-2.14,4.28-.85-3.39,.57-7.01-1.02-10.33-.11-8.02-.22-16.04-.32-24.06-.21-.16-.24-.35-.07-.56,1.05,.07,2.1,.14,3.15,.22Z"/>
      <path class="cls-9" d="M178.57,55.43c1.77-.08,3.55-.15,5.32-.24,2.56,4.64,1.44,8.75-2.74,9.19-2.71,.29-5.18-.87-6.44-3.54-1.88-3.99,2.15-3.9,3.86-5.41Z"/>
      <path class="cls-12" d="M178.47,71.57c.11,8.02,.22,16.04,.32,24.07-7.7,8.6-15.39,17.2-23.09,25.8q-7.78,.6-8.68,8.46c-.07,.64-.31,1.26-.48,1.89-3.24,3.55-6.54,7.04-9.72,10.65-5.37,6.09-12.71,11.47-15.42,18.59-2.71,7.13-.84,16.03-.82,24.16,.04,20.24,.17,40.49,.26,60.73-.03,.71-.06,1.42-.09,2.13-.08,.55-.17,1.1-.25,1.64-3.82,6.1-6.7,12.59-8.17,19.66-1.16,.1-2.31,.3-3.47,.3-29.49,.02-58.97-.05-88.46,.1-3.76,.02-4.75-1.03-4.74-4.76,.11-62.96,.12-125.93,0-188.89,0-3.91,1.33-4.65,4.89-4.64,52.64,.11,105.28,.1,157.92,.11Z"/>
      <path class="cls-11" d="M356.36,71.83c5.15-.11,10.3-.16,15.44-.36,2.63-.1,3.48,1.06,3.41,3.59-.13,4.82-.04,9.65-.04,14.48,0,58.09-.07,116.18,.12,174.26,.02,4.91-1.35,6.01-6.1,5.98-30.29-.22-60.59-.11-90.89-.12-1.66,0-3.31-.17-4.97-.26,.4-1.26,.71-2.56,1.22-3.77,17.26-40.87,34.55-81.72,51.81-122.59,10.02-23.72,19.99-47.47,29.98-71.2Z"/>
      <path class="cls-12" d="M356.36,71.83c-9.99,23.74-19.96,47.48-29.98,71.2-17.26,40.87-34.55,81.72-51.81,122.59-.51,1.21-.82,2.51-1.22,3.77-18.31,.48-36.62,.38-54.93,.05-.06-2.9,1.19-5.42,2.26-8,1.5-3.62,3.64-7.03,3.86-11.1,.62-.18,1.23-.36,1.85-.54,12.77,.1,25.54,.03,38.3,.39,4.19,.12,6.26-.97,5.88-5.34,10.06-.13,8.92,1.14,8.94-9.16,.04-25.07-.14-50.14,.11-75.21,.07-7.14-3.75-11.17-9.06-14.62-.16-.94-.32-1.87-.48-2.81,1.23-.73,1.71-1.97,2.23-3.2,6.13-14.53,12.42-28.99,18.37-43.59,3.31-8.12,7.41-15.94,9.85-24.41,18.61-.56,37.23-.53,55.84-.02Z"/>
      <path class="cls-11" d="M300.52,71.85c-2.44,8.48-6.54,16.29-9.85,24.41-5.95,14.6-12.24,29.07-18.37,43.59-.52,1.24-1,2.47-2.23,3.2-2.92-2.94-6.15-5.63-8.68-8.86-3.72-4.75-9.77-8.33-8.23-16.01,.45-2.23-2.02-2.09-3.66-2.17-2.11-.1-4.19,.25-5.93-1.71-8.11-9.18-16.58-18.06-24.44-27.45-4.2-5.02-9.8-8.94-12.46-15.23,30.8-.04,61.59-.08,92.39-.11,.48,0,.97,.21,1.45,.32Z"/>
      <path class="cls-11" d="M224.53,250.34c-.22,4.07-2.36,7.47-3.86,11.1-1.07,2.58-2.32,5.1-2.26,8-26.74,.07-53.47,.18-80.21,.21-8.63,0-17.25-.19-25.88-.3,1.47-7.07,4.35-13.56,8.17-19.66,.34,.02,.68,.05,1.01,.07,.33,.05,.66,.1,.99,.15,0,0,.46,.17,.46,.17l.46-.17c12.78,.07,25.57,.16,38.35,.21,20.92,.09,41.84,.15,62.76,.23Z"/>
      <path class="cls-7" d="M206.68,71.64c2.66,6.28,8.26,10.21,12.46,15.23,7.86,9.39,16.33,18.26,24.44,27.45,1.73,1.96,3.82,1.61,5.93,1.71,1.63,.08,4.11-.07,3.66,2.17-1.54,7.67,4.51,11.26,8.23,16.01,2.54,3.24,5.77,5.93,8.68,8.86,.16,.94,.32,1.87,.48,2.81-2.84,2.11-1.87,6.81-5.65,8.28-5.62-6.02-11.24-12.04-16.86-18.07-1.18-1.62-2.41-3.19-4.23-4.16-.12-2.97,.57-6.32-.57-8.82-1.55-3.39-5.84-.35-8.49-2.07-1.73-2-3.44-4.02-5.19-6-10.38-11.78-20.78-23.56-31.16-35.33,.86-3.44,4.71-4.68,5.84-7.92,.82-.05,1.63-.09,2.45-.14Z"/>
      <path class="cls-12" d="M182.61,90.73c-.05-6.26-.11-12.51-.16-18.77,.89-.09,1.77-.18,2.66-.27,.56,0,1.13,0,1.69,0,.55,.04,1.1,.09,1.65,.13,.13,4.05,.26,8.1,.39,12.16-.81,1.38-1.62,2.76-2.44,4.13-1.66,.3-1.99,2.52-3.8,2.61Z"/>
      <path class="cls-11" d="M204.23,71.78c-1.13,3.24-4.97,4.48-5.84,7.92-2.13-2.57-4.11-1.97-6.01,.28-1.55-2.61-.66-5.44-.73-8.19,4.19-.59,8.38-.42,12.58-.02Z"/>
      <path class="cls-14" d="M191.66,71.79c.06,2.75-.82,5.58,.73,8.19-.76,1.71-2.05,2.94-3.54,4.01-.13-4.05-.26-8.1-.4-12.16,1.06-.49,2.13-.42,3.2-.04Z"/>
      <path class="cls-14" d="M186.8,71.7c-.56,0-1.13,0-1.69,0,.56-.49,1.13-.49,1.69,0Z"/>
      <path class="cls-2" d="M274.42,311.95c2.67-1.29,5.34-1.33,9.24-.1-3.84,1.44-6.53,1.13-9.24,.1Z"/>
      <path class="cls-2" d="M297.45,311.85c2.35-1.16,4.68-1.25,7.65-.18-2.91,1.74-5.28,1.36-7.65,.18Z"/>
      <path class="cls-2" d="M294.71,311.9c-3.59,1.27-5.92,1.19-8.29-.09,2.26-1.02,4.59-1.24,8.29,.09Z"/>
      <path class="cls-3" d="M155.71,121.43c7.69-8.6,15.39-17.2,23.08-25.8,1.59,3.32,.18,6.93,1.02,10.33-.27,1.17-.53,2.33-.8,3.5v.05c-.03,.87-.06,1.73-.09,2.59-2.45,2.58-3.61,5.78-4.34,9.17-6.29,.68-12.58,.32-18.88,.15Z"/>
      <path class="cls-5" d="M182.61,90.73c1.8-.09,2.14-2.31,3.8-2.61,.02,11.06,.04,22.12,.07,33.17-1.34,.05-2.68,.09-4.03,.14-.17-6.59,.67-13.2-.5-19.76-.02-.59-.03-1.18-.05-1.77,.68-2.55,.61-5.11,.07-7.67,.21-.5,.43-1,.64-1.5Z"/>
      <path class="cls-13" d="M181.95,101.67c1.17,6.56,.33,13.17,.5,19.76-1.14,.24-2.26,.36-3.35-.21-.06-3.04-.12-6.08-.17-9.12,.03-.87,.05-1.73,.08-2.59,0,0,0-.05,0-.05,.27-1.17,.53-2.34,.8-3.5,.65-1.46,.76-3.19,2.14-4.28Z"/>
      <path class="cls-13" d="M181.97,92.24c.54,2.56,.61,5.12-.07,7.67-.9-2.57-1.02-5.12,.07-7.67Z"/>
      <path class="cls-4" d="M179.1,121.22c1.08,.57,2.21,.45,3.35,.21,1.34-.05,2.68-.09,4.03-.14,8.06,.08,16.12,.16,24.19,.24,.43,3.86-.85,7.08-3.64,9.74-2.06-.13-3.72-1.26-5.54-2.05-6.38-2.79-14-.81-17.87,4.53-4.25,5.87-4.23,12.64,.05,18.46,3.47,4.72,10.21,6.85,16.04,5.07,6.93-2.11,10.55-7.35,10.68-15.48,6.96-2.43,11.26-7.27,13.81-14.86-3.1,.94-5.85-.21-6.26,4.39-.43,4.83-7.53,7.49-11.39,5.13,5.1-3.61,7.44-8.71,8.01-14.78,6.72-.47,13.5,.67,20.19-.65,2.66,1.73,6.94-1.32,8.49,2.07,1.15,2.5,.45,5.85,.57,8.82,0,9.4,.01,18.8,.02,28.2,0,9.27-.02,18.55-.03,27.82-1.41,5.33-5.97,8.21-9.34,12.01-.63-.03-1.25-.06-1.88-.09-.05-1.66-.22-3.33-.11-4.98,.16-2.5-.7-3.63-3.37-3.59-23.43,.33-46.87-.61-70.29,.56-2.64,1.12,.49,6.22-4.13,5.97l-.15-.17c-.24-.26-.49-.53-.73-.79-2.38-2.35-4.77-4.7-7.15-7.05,.49-.87,.71-1.74,.7-2.8-.12-14.28-.1-28.57-.25-42.85-.05-4.12,.68-8.29-.56-12.36,.16-.63,.4-1.25,.48-1.89q.91-7.86,8.68-8.46c6.3,.17,12.59,.52,18.88-.15,1.51,.39,3.02,.48,4.52-.05Zm-18.67,63.73c6.23,.01,12.46,.04,18.68,.03,1.49,0,3.36,.08,3.2-2.06-.16-2.15-2.02-1.05-3.16-1.06-6.26-.03-12.54,.43-18.73-.96,.05-3.51,2.82-1.87,4.19-1.88,20.15-.14,40.3-.07,60.45-.13,1.78,0,3.93,.77,5.48-1.42-.75-.23-1.22-.5-1.68-.5-22.15-.03-44.3-.04-66.45-.03-1.47,0-3.32-.19-3.68,1.73-.48,2.57-.59,5.22,.05,7.82,.55-.52,1.1-1.04,1.64-1.55Zm.05-14.03c6.7,1.19,13.16-2.14,19.89-1,1.22,.21,3.73,1.91,3.77-1.13,.03-2.41-2.38-1.76-3.89-1.81-6.59-.21-13.23,.48-19.76-1.03,1.02-2.15,2.92-.95,4.34-.95,20.13-.09,40.25-.04,60.38-.1,1.71,0,3.84,.78,5.6-1.94-23.43,0-46.18,0-68.94,0-1.37,0-2.91,.11-3.15,1.76-.37,2.58-.63,5.21,.11,7.79,.55-.53,1.1-1.06,1.65-1.59Zm31.48,.03c.64,0,.98,.04,1.3,0,2.08-.28,5.43,.96,5.06-2.8-.34-3.47-3.2-.61-4.8-1.19-.44-.16-1-.1-1.48-.01-2.1,.38-5.83-1.1-5.82,1.88,.01,3.58,3.93,1.43,5.74,2.14Z"/>
      <path class="cls-3" d="M146.55,131.78c1.24,4.07,.51,8.25,.56,12.36,.16,14.28,.14,28.57,.25,42.85,0,1.06-.21,1.93-.7,2.8-4.3,2.12-4.36,6.8-5.99,10.4-6.84,15.14-12.59,30.75-19.83,45.72-.09-20.24-.22-40.49-.26-60.73-.02-8.13-1.89-17.03,.82-24.16,2.71-7.12,10.05-12.5,15.42-18.59,3.18-3.6,6.48-7.1,9.72-10.65Z"/>
      <path class="cls-5" d="M120.84,245.92c7.24-14.97,12.99-30.59,19.83-45.72,1.63-3.6,1.69-8.28,5.99-10.4,2.38,2.35,4.77,4.7,7.15,7.05,.24,.27,.49,.53,.73,.79,0,0,.15,.17,.15,.17,.86,1.69,2.07,3.07,3.69,4.07l1.25,1.3c2.36,4.34,7.11,6.81,8.96,11.55-5.71,4.39-11.42,8.77-17.14,13.16l-1.02,1.03,.04-.04c-.68,.34-1.36,.68-2.04,1.03l.04-.03c-.35,.35-.69,.69-1.04,1.04,0,0,.04-.04,.04-.04-.68,.34-1.36,.69-2.04,1.03l.03-.03c-.35,.34-.69,.69-1.04,1.03,0,0,.04-.04,.04-.04-.35,.35-.69,.69-1.04,1.04,0,0,.04-.04,.04-.04-.68,.34-1.36,.69-2.04,1.03l.04-.03c-.35,.34-.69,.69-1.04,1.03-2.32,1.65-4.65,3.3-6.97,4.96-.34,.35-.68,.7-1.02,1.05,0,0,.04-.04,.04-.04-.68,.34-1.36,.69-2.04,1.03l.04-.03c-.35,.35-.69,.69-1.04,1.04l.04-.04c-.68,.34-1.36,.69-2.04,1.03l.04-.03c-.35,.35-.69,.69-1.04,1.04,0,0,.04-.04,.04-.04-.35,.35-.69,.69-1.04,1.04,0,0,.04-.04,.04-.04-.68,.34-1.36,.69-2.04,1.03,0,0,.03-.04,.03-.04-.33,.68-.65,1.36-.98,2.04-.33-.05-.66-.1-.99-.15-.25-.57-.51-1.14-.76-1.72,.03-.71,.06-1.42,.09-2.13Z"/>
      <path class="cls-3" d="M120.75,248.04c.25,.57,.51,1.14,.76,1.72-.34-.02-.67-.05-1.01-.07,.08-.55,.17-1.1,.25-1.64Z"/>
      <path class="cls-1" d="M151.46,227.88c5.71-4.39,11.42-8.77,17.14-13.16,7.45-6.15,16.28-5.92,25.19-5.56,4.62,.19,9.28,.35,13.87-.05,5.26-.46,9.31,1.36,12.76,5.08,5.01,3.9,10.02,7.8,15.03,11.7-.61,1.87-1.18,3.76-1.83,5.62-2.16,6.19-5.75,11.83-7.23,18.3-.62,.18-1.24,.36-1.85,.54-20.92-.08-41.84-.14-62.76-.23-12.78-.05-25.57-.14-38.35-.21,.02-.68,.04-1.36,.06-2.03,0,0-.03,.04-.03,.04,.68-.34,1.36-.69,2.04-1.03,0,0-.04,.04-.04,.04,.35-.35,.69-.69,1.04-1.04,0,0-.04,.04-.04,.04,.35-.35,.69-.69,1.04-1.04,0,0-.04,.03-.04,.03,.68-.34,1.36-.69,2.04-1.03,0,0-.04,.04-.04,.04,.35-.35,.69-.69,1.04-1.04,0,0-.04,.03-.04,.03,.68-.34,1.36-.69,2.04-1.03,0,0-.04,.04-.04,.04,.34-.35,.68-.7,1.02-1.05,2.32-1.65,4.65-3.3,6.97-4.96,.35-.34,.69-.69,1.04-1.03,0,0-.04,.03-.04,.03,.68-.34,1.36-.69,2.04-1.03,0,0-.04,.04-.04,.04,.35-.35,.69-.69,1.04-1.04,0,0-.04,.04-.04,.04,.35-.34,.69-.69,1.04-1.03,0,0-.03,.03-.03,.03,.68-.34,1.36-.69,2.04-1.03,0,0-.04,.04-.04,.04,.35-.35,.69-.69,1.04-1.04,0,0-.04,.03-.04,.03,.68-.34,1.36-.68,2.04-1.03,0,0-.04,.04-.04,.04,.34-.35,.68-.69,1.02-1.03Zm43.3,15.77c8.89-.15,14.62-5.37,14.5-13.24-.11-7.5-6.38-13.6-13.85-13.46-7.55,.15-13.49,6.34-13.34,13.92,.15,7.23,5.77,12.89,12.68,12.78Z"/>
      <path class="cls-3" d="M226.39,249.8c1.48-6.47,5.06-12.1,7.23-18.3,.65-1.86,1.22-3.74,1.83-5.62,3.69-3.82,4.24-9.12,6.22-13.71,7.49-17.33,14.58-34.83,21.83-52.26,1.71-.94,1.86-2.61,2.01-4.29,3.75,2.55,4.97,5.99,4.94,10.59-.13,26.21,.05,52.43,.12,78.64,.38,4.37-1.69,5.46-5.88,5.34-12.76-.36-25.54-.29-38.3-.39Z"/>
      <path class="cls-14" d="M270.57,244.86c-.07-26.21-.25-52.43-.12-78.64,.02-4.6-1.2-8.04-4.94-10.59-.2-.49-.4-.99-.6-1.48,3.78-1.47,2.8-6.18,5.65-8.28,5.31,3.45,9.13,7.47,9.06,14.62-.25,25.07-.07,50.14-.11,75.21-.02,10.29,1.12,9.03-8.94,9.16Z"/>
      <path class="cls-3" d="M123.48,247.87c-.02,.68-.04,1.36-.06,2.03,0,0-.46,.17-.46,.17,0,0-.46-.17-.46-.17,.33-.68,.65-1.36,.98-2.04Z"/>
      <path class="cls-1" d="M210.66,121.54c-8.06-.08-16.13-.16-24.19-.24-.02-11.06-.04-22.12-.06-33.17,.81-1.38,1.62-2.75,2.43-4.13,1.48-1.07,2.78-2.3,3.54-4.01,1.9-2.25,3.88-2.85,6.01-.28,10.39,11.78,20.78,23.55,31.16,35.33,1.75,1.98,3.46,4,5.19,6-6.7,1.32-13.47,.18-20.19,.65-.18-2.34-.35-4.67-.58-7.69-2.83,2.37-6.1,3.65-3.31,7.54Z"/>
      <path class="cls-5" d="M263.49,159.92c-7.24,17.44-14.34,34.93-21.83,52.26-1.98,4.59-2.53,9.89-6.22,13.71-5.01-3.9-10.02-7.8-15.03-11.7,5.24-2.24,7.81-7.11,11.13-11.24,.31-.32,.61-.63,.92-.95,1.07-.29,1.66-1.05,2-2.05,3.37-3.8,7.93-6.68,9.34-12.01,2.18-.61,2.54-2.25,2.53-4.22-.04-6.74-.03-13.48,0-20.22,0-1.81-.2-3.34-2.51-3.38,0-9.4-.01-18.8-.02-28.2,1.82,.97,3.05,2.54,4.23,4.16-1.26,6.9-.29,13.85-.53,20.77-.09,2.44,1.46,3.05,3.56,3.04,4.14-.02,8.28,.01,12.42,.02Z"/>
      <path class="cls-1" d="M263.49,159.92c-4.14-.01-8.28-.04-12.42-.02-2.1,0-3.64-.6-3.56-3.04,.24-6.92-.73-13.88,.53-20.77,5.62,6.02,11.24,12.05,16.87,18.07,.2,.49,.4,.99,.6,1.48-.15,1.67-.3,3.35-2.01,4.29Z"/>
      <path class="cls-5" d="M179.1,121.22c-1.5,.53-3.01,.45-4.52,.05,.73-3.4,1.9-6.59,4.34-9.17,.06,3.04,.12,6.08,.17,9.12Z"/>
      <path class="cls-5" d="M179.01,109.46s0,.05,0,.05,0-.05,0-.05Z"/>
      <path class="cls-15" d="M232.46,202c-.31,.32-.61,.63-.92,.95-10.82-.04-21.65-.14-32.47-.1-13.15,.05-26.29,.21-39.44,.33-.42-.43-.84-.86-1.25-1.3,1.45-3.29,.74-6.68,.44-10.04,23.42-1.17,46.86-.22,70.29-.56,2.66-.04,3.53,1.1,3.37,3.59-.11,1.65,.06,3.32,.11,4.98-.04,.72-.08,1.43-.12,2.15Zm-37.49-2.96c1.68-.63,4.82,1,4.85-1.77,.02-2.27-2.97-1.01-4.6-1.39-1.13-.26-2.29-.42-3.43-.61-1.18-.2-1.98,.24-2.08,1.48-.07,.9,.34,1.7,1.28,1.87,1.3,.24,2.64,.29,3.99,.42Z"/>
      <path class="cls-6" d="M210.39,141.81c-.12,8.13-3.74,13.38-10.68,15.48-5.84,1.77-12.57-.36-16.04-5.07-4.29-5.83-4.31-12.6-.05-18.46,3.87-5.34,11.49-7.33,17.87-4.53,1.82,.79,3.48,1.92,5.54,2.05-1.72,2.18-3.61,4.05-6.73,3.61-.54-3.75-2.89-5.37-6.31-4.22-3.74,1.25-4.48,4.75-2.95,7.81,2.27,4.54,.86,6.8-3.48,8.19-2.8,.9-2.14,2.31-.64,3.99,4.34,4.85,12.41,4.88,16.93,.1,1.8-1.9,2.13-3.17-.73-4.31-2.43-.97-5.2-1.93-4.49-5.56,.55-.26,1.09-.52,1.64-.77,2.9,3.37,6.72,1.27,10.11,1.7Z"/>
      <path class="cls-2" d="M160.48,170.92c-.55,.53-1.1,1.06-1.65,1.59-.74-2.58-.49-5.21-.11-7.79,.24-1.65,1.79-1.76,3.15-1.76,22.75,0,45.51,0,68.94,0-1.76,2.72-3.9,1.93-5.6,1.94-20.13,.06-40.25,.01-60.38,.1-1.42,0-3.32-1.19-4.34,.95,0,1.66,0,3.32,0,4.97Z"/>
      <path class="cls-2" d="M160.43,184.95c-.55,.52-1.1,1.04-1.64,1.55-.63-2.6-.53-5.25-.05-7.82,.36-1.92,2.21-1.73,3.68-1.73,22.15,0,44.3,0,66.45,.03,.46,0,.93,.27,1.68,.5-1.55,2.18-3.7,1.41-5.48,1.42-20.15,.06-40.3,0-60.45,.13-1.37,0-4.14-1.63-4.19,1.88,0,1.35,0,2.7,0,4.05Z"/>
      <path class="cls-13" d="M200.29,134.89c3.12,.43,5.01-1.44,6.73-3.61,2.79-2.66,4.07-5.88,3.64-9.74-2.79-3.89,.47-5.17,3.31-7.54,.23,3.02,.41,5.36,.58,7.69-.57,6.06-2.91,11.17-8.01,14.78-2.41,.67-4.58,1.74-6.27,3.65-.55,.26-1.09,.52-1.64,.77-4.12-.67-3.8-3.42-3.1-6.75,1.61,1.04,3.06,2.32,4.76,.75Z"/>
      <path class="cls-10" d="M200.28,140.12c1.68-1.91,3.86-2.99,6.27-3.65,3.86,2.37,10.96-.3,11.39-5.13,.41-4.6,3.16-3.44,6.26-4.39-2.55,7.59-6.85,12.44-13.81,14.86-3.39-.42-7.21,1.67-10.11-1.7Z"/>
      <path class="cls-6" d="M160.48,170.92c0-1.66,0-3.32,0-4.97,6.53,1.51,13.16,.82,19.76,1.03,1.52,.05,3.92-.6,3.89,1.81-.04,3.04-2.54,1.33-3.77,1.13-6.73-1.14-13.19,2.19-19.89,1Z"/>
      <path class="cls-13" d="M243.83,160.13c2.3,.04,2.51,1.57,2.51,3.38-.03,6.74-.04,13.48,0,20.22,.01,1.97-.35,3.61-2.53,4.22,0-9.27,.02-18.55,.03-27.82Z"/>
      <path class="cls-6" d="M160.43,184.95c0-1.35,0-2.7,0-4.05,6.19,1.38,12.47,.93,18.73,.96,1.13,0,2.99-1.1,3.16,1.06,.16,2.14-1.71,2.06-3.2,2.06-6.23,0-12.46-.02-18.68-.03Z"/>
      <path class="cls-6" d="M191.96,170.95c-1.8-.71-5.72,1.44-5.74-2.14-.01-2.98,3.71-1.5,5.82-1.88,.48-.09,1.04-.14,1.48,.01,1.6,.58,4.47-2.28,4.8,1.19,.37,3.77-2.98,2.52-5.06,2.8-.33,.04-.66,0-1.3,0Z"/>
      <path class="cls-6" d="M158.82,191.84c.3,3.37,1.01,6.75-.44,10.04-1.63-1-2.83-2.38-3.69-4.07,4.62,.25,1.49-4.85,4.13-5.97Z"/>
      <path class="cls-6" d="M232.46,202c.04-.71,.08-1.43,.12-2.15,.63,.03,1.25,.06,1.88,.09-.34,1.01-.93,1.76-2,2.05Z"/>
      <path class="cls-6" d="M154.54,197.64c-.24-.26-.49-.53-.73-.79,.24,.26,.49,.53,.73,.79Z"/>
      <path class="cls-4" d="M159.64,203.18c13.15-.11,26.29-.28,39.44-.33,10.82-.04,21.65,.06,32.47,.1-3.32,4.14-5.89,9.01-11.13,11.24-3.45-3.72-7.5-5.54-12.76-5.08-4.59,.4-9.25,.24-13.87,.05-8.91-.36-17.74-.59-25.19,5.56-1.85-4.73-6.6-7.21-8.96-11.55Z"/>
      <path class="cls-3" d="M143.49,233.88c-.68,.34-1.36,.68-2.04,1.03,.68-.34,1.36-.68,2.04-1.03Z"/>
      <path class="cls-3" d="M132.49,241.88c-.68,.34-1.36,.68-2.04,1.03,.68-.34,1.36-.69,2.04-1.03Z"/>
      <path class="cls-3" d="M129.49,243.87c-.68,.34-1.36,.69-2.04,1.03,.68-.34,1.36-.69,2.04-1.03Z"/>
      <path class="cls-3" d="M125.49,246.87c-.68,.34-1.36,.69-2.04,1.03,.68-.34,1.36-.69,2.04-1.03Z"/>
      <path class="cls-3" d="M147.49,230.88c-.68,.34-1.36,.69-2.04,1.03,.68-.34,1.36-.69,2.04-1.03Z"/>
      <path class="cls-3" d="M150.48,228.88c-.68,.34-1.36,.68-2.04,1.03,.68-.34,1.36-.68,2.04-1.03Z"/>
      <path class="cls-3" d="M141.49,234.88c-.35,.34-.69,.69-1.04,1.03,.35-.34,.69-.69,1.04-1.03Z"/>
      <path class="cls-3" d="M133.47,240.86c-.34,.35-.68,.7-1.02,1.05,.34-.35,.68-.7,1.02-1.05Z"/>
      <path class="cls-3" d="M130.49,242.87c-.35,.35-.69,.69-1.04,1.04,.35-.35,.69-.69,1.04-1.04Z"/>
      <path class="cls-3" d="M127.49,244.88c-.35,.35-.69,.69-1.04,1.04,.35-.35,.69-.69,1.04-1.04Z"/>
      <path class="cls-3" d="M126.49,245.87c-.35,.35-.69,.69-1.04,1.04,.35-.35,.69-.69,1.04-1.04Z"/>
      <path class="cls-3" d="M144.49,232.88c-.35,.35-.69,.69-1.04,1.04,.35-.35,.69-.69,1.04-1.04Z"/>
      <path class="cls-3" d="M145.48,231.89c-.35,.34-.69,.69-1.04,1.03,.35-.34,.69-.69,1.04-1.03Z"/>
      <path class="cls-3" d="M148.48,229.88c-.35,.35-.69,.69-1.04,1.04,.35-.35,.69-.69,1.04-1.04Z"/>
      <path class="cls-3" d="M151.46,227.88c-.34,.34-.68,.69-1.02,1.03,.34-.34,.68-.69,1.02-1.03Z"/>
      <path class="cls-2" d="M194.77,243.66c-6.91,.11-12.54-5.55-12.68-12.78-.15-7.58,5.78-13.77,13.34-13.92,7.46-.14,13.74,5.95,13.85,13.46,.12,7.87-5.61,13.09-14.5,13.24Zm1.13-24.78c-6.48-.13-11.82,4.98-11.94,11.44-.13,6.48,5,11.83,11.45,11.94,6.48,.11,11.82-4.99,11.97-11.43,.15-6.37-5.08-11.81-11.48-11.94Z"/>
      <path class="cls-12" d="M194.98,199.04c-1.35-.13-2.69-.19-3.99-.42-.94-.17-1.36-.97-1.28-1.87,.1-1.24,.9-1.68,2.08-1.48,1.15,.19,2.3,.35,3.43,.61,1.63,.38,4.63-.88,4.6,1.39-.03,2.77-3.16,1.14-4.85,1.77Z"/>
      <path class="cls-3" d="M200.29,134.89c-1.7,1.56-3.15,.29-4.76-.75-.7,3.33-1.02,6.08,3.1,6.75-.72,3.63,2.05,4.59,4.49,5.56,2.86,1.14,2.54,2.41,.73,4.31-4.53,4.77-12.59,4.75-16.93-.1-1.5-1.68-2.16-3.09,.64-3.99,4.34-1.39,5.75-3.65,3.48-8.19-1.53-3.06-.79-6.56,2.95-7.81,3.42-1.15,5.77,.47,6.31,4.22Z"/>
      <path class="cls-1" d="M195.89,218.87c6.4,.13,11.63,5.57,11.48,11.94-.15,6.45-5.49,11.54-11.97,11.43-6.45-.11-11.58-5.46-11.45-11.94,.13-6.45,5.46-11.56,11.94-11.44Zm-4.87,5.64c-3.79,4.04-4.48,8.63-1.47,11.84,2.56,2.72,5.62,3.59,9.36,1.16-2.77-1-6.25,1.35-7.49-2.63,1.73-.53,3.64-.49,5.3-.5,2.37,0,4.67,.84,5.94-1.91,1.26-2.74,1.43-5.44-1.04-7.74-.34-.56-.74-1.05-1.38-.44-.08,.08,.35,.71,.54,1.08,.65,1.72,1.22,3.45,.75,5.32-.24,.94-.43,2.2-1.71,1.98-1.45-.24-.77-1.49-.73-2.4,.24-4.79-.33-5.1-5.33-2.91-.28,.26-.56,.53-.83,.79-2.45,1.85-.98,4.53-1.43,6.8-4.28-3.34-1.28-6.58,.14-9.83,2.3-1.43,4.89-1.46,7.46-1.71-2.96-1.81-5.63-1.29-8.08,1.09Z"/>
      <path class="cls-6" d="M193.77,227.37c5.01-2.19,5.57-1.88,5.34,2.91-.05,.91-.73,2.16,.73,2.4,1.28,.21,1.48-1.05,1.71-1.98,.47-1.86-.1-3.6-.75-5.32,.28-.21,.56-.43,.83-.64,2.47,2.29,2.3,5,1.04,7.74-1.27,2.75-3.56,1.9-5.94,1.91-1.66,0-3.57-.03-5.3,.5,0,0,.08,.08,.08,.08,.45-2.27-1.02-4.95,1.43-6.8,.27,.33,.54,.66,.81,.99-.04,1.31-1.27,3.15,.8,3.66,1.79,.43,2.37-1.36,2.7-2.77,.58-2.46-1.03-2.16-2.56-1.87-.31-.27-.61-.54-.92-.8Z"/>
      <path class="cls-6" d="M191.65,225.12c-1.42,3.26-4.42,6.5-.14,9.83,0,0-.08-.08-.08-.08,1.24,3.98,4.72,1.63,7.49,2.63-3.73,2.43-6.8,1.56-9.36-1.16-3.02-3.21-2.32-7.8,1.47-11.84,.2,.21,.41,.41,.62,.61Z"/>
      <path class="cls-6" d="M191.03,224.51c2.45-2.39,5.12-2.91,8.08-1.09-2.57,.25-5.16,.28-7.46,1.71-.21-.2-.41-.41-.62-.61Z"/>
      <path class="cls-6" d="M192.94,228.16c.28-.26,.56-.53,.83-.79,.3,.27,.61,.54,.91,.8-.31,.33-.63,.65-.94,.98-.27-.33-.54-.66-.81-.99Z"/>
      <path class="cls-6" d="M200.79,225.37c-.19-.37-.63-1-.54-1.08,.64-.61,1.04-.12,1.38,.44-.28,.21-.56,.43-.83,.64Z"/>
      <path class="cls-1" d="M193.74,229.15c.31-.33,.63-.65,.94-.98,1.53-.29,3.14-.59,2.56,1.87-.33,1.41-.9,3.2-2.7,2.77-2.08-.5-.84-2.34-.8-3.66Z"/>
    </g>
  </g>
</svg>