<svg class="icon" xmlns="http://www.w3.org/2000/svg" width="41" height="41" viewBox="0 0 41 41">
      <path d="M37.876,17.531H15.457a2.989,2.989,0,0,0-2.721,2.225C12.4,21.086,8.943,34.313,8.8,34.743A1.958,1.958,0,0,1,6.663,36.11,1.557,1.557,0,0,1,5.43,34.1c.311-1.189,3.592-13.642,3.93-14.97a5.149,5.149,0,0,1,5.2-4.156H35.313V12.406a2.562,2.562,0,0,0-2.562-2.563H16.184l-1.8-2.7A2.562,2.562,0,0,0,12.251,6H4.563A2.563,2.563,0,0,0,2,8.563V37.046a2.562,2.562,0,0,0,2.239,2.542,104.783,104.783,0,0,0,28.836,0,2.7,2.7,0,0,0,2.4-1.878L40.339,20.8A2.563,2.563,0,0,0,37.876,17.531Z"/>
</svg>
