<svg class="icon" xmlns="http://www.w3.org/2000/svg" width="42" height="42" viewBox="0 0 42 42">
  <path id="Path_903" data-name="Path 903" d="M40.305,14.2a6.614,6.614,0,0,0-5.743-5.485,103.857,103.857,0,0,0-23.914,0A6.614,6.614,0,0,0,4.9,14.2a62.451,62.451,0,0,0,0,20.818A6.614,6.614,0,0,0,10.648,40.5a103.364,103.364,0,0,0,23.914,0,6.614,6.614,0,0,0,5.743-5.485A62.451,62.451,0,0,0,40.305,14.2ZM30.384,25.621a50.868,50.868,0,0,1-12.49,7.628,1.38,1.38,0,0,1-1.9-1.157,91.3,91.3,0,0,1,0-15.027,1.381,1.381,0,0,1,1.9-1.158,50.867,50.867,0,0,1,12.49,7.628A1.383,1.383,0,0,1,30.384,25.621Z"/>
</svg>
