<svg class="trashicon" xmlns="http://www.w3.org/2000/svg" width="48" height="48" viewBox="0 0 48 48">
  <path d="M32.391,18.943v20.92H29.4V18.943H20.437v20.92H17.449V18.943H7.2A76.19,76.19,0,0,0,9.572,43.067a4.483,4.483,0,0,0,3.593,3.28,71.306,71.306,0,0,0,11.756.987,71.338,71.338,0,0,0,11.759-.987,4.486,4.486,0,0,0,3.593-3.28,76.355,76.355,0,0,0,2.376-24.125ZM44.346,8.483H33.886V6.989A2.987,2.987,0,0,0,30.9,4H18.944a2.991,2.991,0,0,0-2.989,2.989V8.483H5.5A1.494,1.494,0,0,0,4,9.977V14.46a1.494,1.494,0,0,0,1.5,1.494H44.346A1.493,1.493,0,0,0,45.84,14.46V9.977A1.493,1.493,0,0,0,44.346,8.483Z"/>
</svg>
