<?xml version="1.0" standalone="no"?>
<!DOCTYPE svg PUBLIC "-//W3C//DTD SVG 20010904//EN"
 "http://www.w3.org/TR/2001/REC-SVG-20010904/DTD/svg10.dtd">
<svg version="1.0" xmlns="http://www.w3.org/2000/svg"
 width="700.000000pt" height="700.000000pt" viewBox="0 0 700.000000 700.000000"
 preserveAspectRatio="xMidYMid meet">
<metadata>
Created by potrace 1.14, written by Peter Selinger 2001-2017
</metadata>
<g transform="translate(0.000000,700.000000) scale(0.100000,-0.100000)"
fill="#000000" stroke="none">
<path d="M550 3500 l0 -1880 580 0 580 0 0 760 0 760 630 0 630 0 0 -760 0
-760 1033 0 c831 0 1060 3 1175 15 356 36 539 68 664 116 207 80 401 267 504
484 154 324 129 745 -60 1009 -114 160 -313 291 -537 352 -64 17 -97 34 -68
34 26 0 200 89 265 136 159 113 276 307 313 518 14 77 14 245 0 322 -60 340
-309 610 -656 713 -189 56 -140 54 -1435 58 l-1198 4 0 -661 0 -660 -627 2
-628 3 -3 658 -2 657 -580 0 -580 0 0 -1880z m4240 1110 c162 -21 249 -70 305
-171 29 -51 30 -60 30 -174 0 -105 -3 -126 -23 -167 -47 -94 -130 -151 -262
-179 -25 -5 -190 -13 -367 -16 l-323 -6 0 362 0 361 283 0 c155 0 316 -5 357
-10z m198 -1444 c128 -33 217 -98 264 -194 20 -41 23 -62 23 -157 -1 -91 -4
-118 -22 -157 -29 -63 -96 -134 -153 -163 -109 -55 -135 -58 -557 -62 l-393
-4 0 381 0 382 388 -5 c315 -3 399 -7 450 -21z"/>
</g>
</svg>
